<svg width="50" height="56" fill="none" xmlns="http://www.w3.org/2000/svg"><path fill="#FFDAC0" d="M0 0h50v56H0z"/><g clip-path="url(#a)"><path fill="#fff" d="M-563-335H717v977H-563z"/><path d="M-563-336H717v583H-443c-66.274 0-120-53.726-120-120v-463Z" fill="#F2F5FC"/><g filter="url(#b)"><path d="M-453-55c0-16.569 13.431-30 30-30H577c16.568 0 30 13.431 30 30V81c0 16.569-13.432 30-30 30H-423c-16.569 0-30-13.431-30-30V-55Z" fill="#fff"/></g><rect x="-7" y="9.723" width="59" height="46" rx="20" fill="#E5E5E5" /><g fill="#FF751D"><path d="M23.973 22.662c-.19-.068-.385-.138-.58-.21v-3.53a4.785 4.785 0 0 1 1.114.627 1.094 1.094 0 0 0 1.39-1.689 6.834 6.834 0 0 0-2.504-1.226v-.536a1.094 1.094 0 0 0-2.187 0v.485a4.474 4.474 0 0 0-.35.088c-1.257.38-2.165 1.439-2.428 2.835-.255 1.357.187 2.71 1.127 3.447.428.337.951.645 1.65.966v4.626c-.494-.07-.866-.238-1.458-.625a1.094 1.094 0 1 0-1.197 1.83c1.039.68 1.771.919 2.656.995v.68a1.094 1.094 0 0 0 2.187 0v-.785c1.82-.46 2.985-2.015 3.243-3.547.331-1.97-.739-3.751-2.663-4.431Zm-2.767-1.218c-.109-.07-.21-.14-.302-.212-.295-.231-.429-.774-.326-1.32.034-.183.174-.727.628-1.016v2.548Zm3.273 5.287a2.264 2.264 0 0 1-1.086 1.571v-3.52c1.187.5 1.158 1.52 1.086 1.949Z"/><path d="m48.79 23.369-6.946-4.588V1.094C41.844.49 41.354 0 40.75 0H14.5c-.604 0-1.094.49-1.094 1.094V5.25H9.25c-.604 0-1.094.49-1.094 1.094V18.78L1.21 23.37a1.094 1.094 0 0 0-.491.912v30.625c0 .604.49 1.094 1.094 1.094h18.265a1.094 1.094 0 0 0 0-2.188H4.453L20.4 37.867l3.998 2.64a1.093 1.093 0 0 0 1.206 0l3.998-2.64 15.946 15.947H29.922a1.094 1.094 0 0 0 0 2.187h18.265c.605 0 1.094-.49 1.094-1.094V24.281c0-.367-.184-.71-.49-.912Zm-2.587.912-4.36 2.879v-5.757l4.36 2.878ZM15.593 2.188h24.063v26.416l-3.062 2.023V6.344c0-.604-.49-1.094-1.094-1.094H15.594V2.187ZM8.157 21.402v5.757L3.797 24.28l4.36-2.878Zm-5.25 30.863V26.314l15.63 10.322-15.63 15.63ZM25 38.283l-14.656-9.679V7.438h24.062V32.07L25 38.283Zm22.094-11.969v25.952l-15.63-15.63 15.63-10.322Z"/><path d="M25 53.813c-.288 0-.57.116-.773.32-.204.203-.32.486-.32.773 0 .288.116.57.32.773.203.204.485.321.773.321.288 0 .57-.117.773-.32.204-.204.32-.486.32-.774 0-.287-.116-.57-.32-.773a1.101 1.101 0 0 0-.773-.32Z"/></g></g><defs><clipPath id="a"><path fill="#fff" transform="translate(-563 -335)" d="M0 0h1280v977H0z"/></clipPath><filter id="b" x="-513" y="-135" width="1180" height="316" filterUnits="userSpaceOnUse" color-interpolation-filters="sRGB"><feFlood flood-opacity="0" result="BackgroundImageFix"/><feColorMatrix in="SourceAlpha" values="0 0 0 0 0 0 0 0 0 0 0 0 0 0 0 0 0 0 127 0" result="hardAlpha"/><feOffset dy="10"/><feGaussianBlur stdDeviation="30"/><feColorMatrix values="0 0 0 0 0.666667 0 0 0 0 0.698039 0 0 0 0 0.772549 0 0 0 0.2 0"/><feBlend in2="BackgroundImageFix" result="effect1_dropShadow_0_1"/><feBlend in="SourceGraphic" in2="effect1_dropShadow_0_1" result="shape"/></filter></defs></svg>